<?xml version="1.0" encoding="UTF-8"?>
<!DOCTYPE xmeml>
<xmeml version="5">
    <sequence>
        <name>VLOG_14_-Egor Mira Fm Radio construction status -_V01 (Resolve) (Resolve)</name>
        <duration>9073</duration>
        <rate>
            <timebase>24</timebase>
            <ntsc>TRUE</ntsc>
        </rate>
        <in>-1</in>
        <out>-1</out>
        <timecode>
            <string>01:00:00:00</string>
            <frame>86400</frame>
            <displayformat>NDF</displayformat>
            <rate>
                <timebase>24</timebase>
                <ntsc>TRUE</ntsc>
            </rate>
        </timecode>
        <media>
            <video>
                <track>
                    <clipitem id="B080R010_240828QM.MXF 0">
                        <name>B080R010_240828QM.MXF</name>
                        <duration>13380</duration>
                        <rate>
                            <timebase>24</timebase>
                            <ntsc>TRUE</ntsc>
                        </rate>
                        <start>0</start>
                        <end>564</end>
                        <enabled>TRUE</enabled>
                        <in>47</in>
                        <out>611</out>
                        <file id="B080R010_240828QM.MXF 2">
                            <duration>13380</duration>
                            <rate>
                                <timebase>24</timebase>
                                <ntsc>TRUE</ntsc>
                            </rate>
                            <name>B080R010_240828QM.MXF</name>
                            <pathurl>file://localhost/Mira%20Films%20Storage/MIRA%20RORE/Assets/Video/Source/2024.08.28%20-%20Mira%20Radio%20Broadcast%20Solutions/B%20Cam/B%20Card%203/XDROOT/Clip/B080R010_240828QM.MXF</pathurl>
                            <timecode>
                                <string>13:00:38:04</string>
                                <displayformat>NDF</displayformat>
                                <rate>
                                    <timebase>24</timebase>
                                    <ntsc>TRUE</ntsc>
                                </rate>
                            </timecode>
                            <media>
                                <video>
                                    <duration>13380</duration>
                                    <samplecharacteristics>
                                        <width>3840</width>
                                        <height>2160</height>
                                    </samplecharacteristics>
                                </video>
                                <audio>
                                    <channelcount>8</channelcount>
                                </audio>
                            </media>
                        </file>
                        <compositemode>normal</compositemode>
                        <filter>
                            <enabled>TRUE</enabled>
                            <start>0</start>
                            <end>13380</end>
                            <effect>
                                <name>Basic Motion</name>
                                <effectid>basic</effectid>
                                <effecttype>motion</effecttype>
                                <mediatype>video</mediatype>
                                <effectcategory>motion</effectcategory>
                                <parameter>
                                    <name>Scale</name>
                                    <parameterid>scale</parameterid>
                                    <value>100</value>
                                    <valuemin>0</valuemin>
                                    <valuemax>10000</valuemax>
                                </parameter>
                                <parameter>
                                    <name>Center</name>
                                    <parameterid>center</parameterid>
                                    <value>
                                        <horiz>0</horiz>
                                        <vert>0</vert>
                                    </value>
                                </parameter>
                                <parameter>
                                    <name>Rotation</name>
                                    <parameterid>rotation</parameterid>
                                    <value>0</value>
                                    <valuemin>-100000</valuemin>
                                    <valuemax>100000</valuemax>
                                </parameter>
                                <parameter>
                                    <name>Anchor Point</name>
                                    <parameterid>centerOffset</parameterid>
                                    <value>
                                        <horiz>0</horiz>
                                        <vert>0</vert>
                                    </value>
                                </parameter>
                            </effect>
                        </filter>
                        <filter>
                            <enabled>TRUE</enabled>
                            <start>0</start>
                            <end>13380</end>
                            <effect>
                                <name>Crop</name>
                                <effectid>crop</effectid>
                                <effecttype>motion</effecttype>
                                <mediatype>video</mediatype>
                                <effectcategory>motion</effectcategory>
                                <parameter>
                                    <name>left</name>
                                    <parameterid>left</parameterid>
                                    <value>0</value>
                                    <valuemin>0</valuemin>
                                    <valuemax>100</valuemax>
                                </parameter>
                                <parameter>
                                    <name>right</name>
                                    <parameterid>right</parameterid>
                                    <value>0</value>
                                    <valuemin>0</valuemin>
                                    <valuemax>100</valuemax>
                                </parameter>
                                <parameter>
                                    <name>top</name>
                                    <parameterid>top</parameterid>
                                    <value>0</value>
                                    <valuemin>0</valuemin>
                                    <valuemax>100</valuemax>
                                </parameter>
                                <parameter>
                                    <name>bottom</name>
                                    <parameterid>bottom</parameterid>
                                    <value>0</value>
                                    <valuemin>0</valuemin>
                                    <valuemax>100</valuemax>
                                </parameter>
                            </effect>
                        </filter>
                        <filter>
                            <enabled>TRUE</enabled>
                            <start>0</start>
                            <end>13380</end>
                            <effect>
                                <name>Opacity</name>
                                <effectid>opacity</effectid>
                                <effecttype>motion</effecttype>
                                <mediatype>video</mediatype>
                                <effectcategory>motion</effectcategory>
                                <parameter>
                                    <name>opacity</name>
                                    <parameterid>opacity</parameterid>
                                    <value>100</value>
                                    <valuemin>0</valuemin>
                                    <valuemax>100</valuemax>
                                </parameter>
                            </effect>
                        </filter>
                        <link>
                            <linkclipref>B080R010_240828QM.MXF 0</linkclipref>
                        </link>
                        <link>
                            <linkclipref>B080R010_240828QM.MXF 9</linkclipref>
                        </link>
                        <link>
                            <linkclipref>B080R010_240828QM.MXF 13</linkclipref>
                        </link>
                        <link>
                            <linkclipref>B080R010_240828QM.MXF 17</linkclipref>
                        </link>
                        <link>
                            <linkclipref>B080R010_240828QM.MXF 21</linkclipref>
                        </link>
                        <comments/>
                    </clipitem>
                    <clipitem id="B080R010_240828QM.MXF 3">
                        <name>B080R010_240828QM.MXF</name>
                        <duration>13380</duration>
                        <rate>
                            <timebase>24</timebase>
                            <ntsc>TRUE</ntsc>
                        </rate>
                        <start>564</start>
                        <end>1060</end>
                        <enabled>TRUE</enabled>
                        <in>722</in>
                        <out>1218</out>
                        <file id="B080R010_240828QM.MXF 2"/>
                        <compositemode>normal</compositemode>
                        <filter>
                            <enabled>TRUE</enabled>
                            <start>0</start>
                            <end>13380</end>
                            <effect>
                                <name>Basic Motion</name>
                                <effectid>basic</effectid>
                                <effecttype>motion</effecttype>
                                <mediatype>video</mediatype>
                                <effectcategory>motion</effectcategory>
                                <parameter>
                                    <name>Scale</name>
                                    <parameterid>scale</parameterid>
                                    <value>100</value>
                                    <valuemin>0</valuemin>
                                    <valuemax>10000</valuemax>
                                </parameter>
                                <parameter>
                                    <name>Center</name>
                                    <parameterid>center</parameterid>
                                    <value>
                                        <horiz>0</horiz>
                                        <vert>0</vert>
                                    </value>
                                </parameter>
                                <parameter>
                                    <name>Rotation</name>
                                    <parameterid>rotation</parameterid>
                                    <value>0</value>
                                    <valuemin>-100000</valuemin>
                                    <valuemax>100000</valuemax>
                                </parameter>
                                <parameter>
                                    <name>Anchor Point</name>
                                    <parameterid>centerOffset</parameterid>
                                    <value>
                                        <horiz>0</horiz>
                                        <vert>0</vert>
                                    </value>
                                </parameter>
                            </effect>
                        </filter>
                        <filter>
                            <enabled>TRUE</enabled>
                            <start>0</start>
                            <end>13380</end>
                            <effect>
                                <name>Crop</name>
                                <effectid>crop</effectid>
                                <effecttype>motion</effecttype>
                                <mediatype>video</mediatype>
                                <effectcategory>motion</effectcategory>
                                <parameter>
                                    <name>left</name>
                                    <parameterid>left</parameterid>
                                    <value>0</value>
                                    <valuemin>0</valuemin>
                                    <valuemax>100</valuemax>
                                </parameter>
                                <parameter>
                                    <name>right</name>
                                    <parameterid>right</parameterid>
                                    <value>0</value>
                                    <valuemin>0</valuemin>
                                    <valuemax>100</valuemax>
                                </parameter>
                                <parameter>
                                    <name>top</name>
                                    <parameterid>top</parameterid>
                                    <value>0</value>
                                    <valuemin>0</valuemin>
                                    <valuemax>100</valuemax>
                                </parameter>
                                <parameter>
                                    <name>bottom</name>
                                    <parameterid>bottom</parameterid>
                                    <value>0</value>
                                    <valuemin>0</valuemin>
                                    <valuemax>100</valuemax>
                                </parameter>
                            </effect>
                        </filter>
                        <filter>
                            <enabled>TRUE</enabled>
                            <start>0</start>
                            <end>13380</end>
                            <effect>
                                <name>Opacity</name>
                                <effectid>opacity</effectid>
                                <effecttype>motion</effecttype>
                                <mediatype>video</mediatype>
                                <effectcategory>motion</effectcategory>
                                <parameter>
                                    <name>opacity</name>
                                    <parameterid>opacity</parameterid>
                                    <value>100</value>
                                    <valuemin>0</valuemin>
                                    <valuemax>100</valuemax>
                                </parameter>
                            </effect>
                        </filter>
                        <link>
                            <linkclipref>B080R010_240828QM.MXF 3</linkclipref>
                        </link>
                        <link>
                            <linkclipref>B080R010_240828QM.MXF 10</linkclipref>
                        </link>
                        <link>
                            <linkclipref>B080R010_240828QM.MXF 14</linkclipref>
                        </link>
                        <link>
                            <linkclipref>B080R010_240828QM.MXF 18</linkclipref>
                        </link>
                        <link>
                            <linkclipref>B080R010_240828QM.MXF 22</linkclipref>
                        </link>
                        <comments/>
                    </clipitem>
                    <clipitem id="B080R010_240828QM.MXF 5">
                        <name>B080R010_240828QM.MXF</name>
                        <duration>13380</duration>
                        <rate>
                            <timebase>24</timebase>
                            <ntsc>TRUE</ntsc>
                        </rate>
                        <start>1060</start>
                        <end>1528</end>
                        <enabled>TRUE</enabled>
                        <in>3991</in>
                        <out>4459</out>
                        <file id="B080R010_240828QM.MXF 2"/>
                        <compositemode>normal</compositemode>
                        <filter>
                            <enabled>TRUE</enabled>
                            <start>0</start>
                            <end>13380</end>
                            <effect>
                                <name>Basic Motion</name>
                                <effectid>basic</effectid>
                                <effecttype>motion</effecttype>
                                <mediatype>video</mediatype>
                                <effectcategory>motion</effectcategory>
                                <parameter>
                                    <name>Scale</name>
                                    <parameterid>scale</parameterid>
                                    <value>100</value>
                                    <valuemin>0</valuemin>
                                    <valuemax>10000</valuemax>
                                </parameter>
                                <parameter>
                                    <name>Center</name>
                                    <parameterid>center</parameterid>
                                    <value>
                                        <horiz>0</horiz>
                                        <vert>0</vert>
                                    </value>
                                </parameter>
                                <parameter>
                                    <name>Rotation</name>
                                    <parameterid>rotation</parameterid>
                                    <value>0</value>
                                    <valuemin>-100000</valuemin>
                                    <valuemax>100000</valuemax>
                                </parameter>
                                <parameter>
                                    <name>Anchor Point</name>
                                    <parameterid>centerOffset</parameterid>
                                    <value>
                                        <horiz>0</horiz>
                                        <vert>0</vert>
                                    </value>
                                </parameter>
                            </effect>
                        </filter>
                        <filter>
                            <enabled>TRUE</enabled>
                            <start>0</start>
                            <end>13380</end>
                            <effect>
                                <name>Crop</name>
                                <effectid>crop</effectid>
                                <effecttype>motion</effecttype>
                                <mediatype>video</mediatype>
                                <effectcategory>motion</effectcategory>
                                <parameter>
                                    <name>left</name>
                                    <parameterid>left</parameterid>
                                    <value>0</value>
                                    <valuemin>0</valuemin>
                                    <valuemax>100</valuemax>
                                </parameter>
                                <parameter>
                                    <name>right</name>
                                    <parameterid>right</parameterid>
                                    <value>0</value>
                                    <valuemin>0</valuemin>
                                    <valuemax>100</valuemax>
                                </parameter>
                                <parameter>
                                    <name>top</name>
                                    <parameterid>top</parameterid>
                                    <value>0</value>
                                    <valuemin>0</valuemin>
                                    <valuemax>100</valuemax>
                                </parameter>
                                <parameter>
                                    <name>bottom</name>
                                    <parameterid>bottom</parameterid>
                                    <value>0</value>
                                    <valuemin>0</valuemin>
                                    <valuemax>100</valuemax>
                                </parameter>
                            </effect>
                        </filter>
                        <filter>
                            <enabled>TRUE</enabled>
                            <start>0</start>
                            <end>13380</end>
                            <effect>
                                <name>Opacity</name>
                                <effectid>opacity</effectid>
                                <effecttype>motion</effecttype>
                                <mediatype>video</mediatype>
                                <effectcategory>motion</effectcategory>
                                <parameter>
                                    <name>opacity</name>
                                    <parameterid>opacity</parameterid>
                                    <value>100</value>
                                    <valuemin>0</valuemin>
                                    <valuemax>100</valuemax>
                                </parameter>
                            </effect>
                        </filter>
                        <link>
                            <linkclipref>B080R010_240828QM.MXF 5</linkclipref>
                        </link>
                        <link>
                            <linkclipref>B080R010_240828QM.MXF 11</linkclipref>
                        </link>
                        <link>
                            <linkclipref>B080R010_240828QM.MXF 15</linkclipref>
                        </link>
                        <link>
                            <linkclipref>B080R010_240828QM.MXF 19</linkclipref>
                        </link>
                        <link>
                            <linkclipref>B080R010_240828QM.MXF 23</linkclipref>
                        </link>
                        <comments/>
                    </clipitem>
                    <clipitem id="B080R010_240828QM.MXF 7">
                        <name>B080R010_240828QM.MXF</name>
                        <duration>13380</duration>
                        <rate>
                            <timebase>24</timebase>
                            <ntsc>TRUE</ntsc>
                        </rate>
                        <start>1528</start>
                        <end>9073</end>
                        <enabled>TRUE</enabled>
                        <in>5835</in>
                        <out>13380</out>
                        <file id="B080R010_240828QM.MXF 2"/>
                        <compositemode>normal</compositemode>
                        <filter>
                            <enabled>TRUE</enabled>
                            <start>0</start>
                            <end>13380</end>
                            <effect>
                                <name>Basic Motion</name>
                                <effectid>basic</effectid>
                                <effecttype>motion</effecttype>
                                <mediatype>video</mediatype>
                                <effectcategory>motion</effectcategory>
                                <parameter>
                                    <name>Scale</name>
                                    <parameterid>scale</parameterid>
                                    <value>100</value>
                                    <valuemin>0</valuemin>
                                    <valuemax>10000</valuemax>
                                </parameter>
                                <parameter>
                                    <name>Center</name>
                                    <parameterid>center</parameterid>
                                    <value>
                                        <horiz>0</horiz>
                                        <vert>0</vert>
                                    </value>
                                </parameter>
                                <parameter>
                                    <name>Rotation</name>
                                    <parameterid>rotation</parameterid>
                                    <value>0</value>
                                    <valuemin>-100000</valuemin>
                                    <valuemax>100000</valuemax>
                                </parameter>
                                <parameter>
                                    <name>Anchor Point</name>
                                    <parameterid>centerOffset</parameterid>
                                    <value>
                                        <horiz>0</horiz>
                                        <vert>0</vert>
                                    </value>
                                </parameter>
                            </effect>
                        </filter>
                        <filter>
                            <enabled>TRUE</enabled>
                            <start>0</start>
                            <end>13380</end>
                            <effect>
                                <name>Crop</name>
                                <effectid>crop</effectid>
                                <effecttype>motion</effecttype>
                                <mediatype>video</mediatype>
                                <effectcategory>motion</effectcategory>
                                <parameter>
                                    <name>left</name>
                                    <parameterid>left</parameterid>
                                    <value>0</value>
                                    <valuemin>0</valuemin>
                                    <valuemax>100</valuemax>
                                </parameter>
                                <parameter>
                                    <name>right</name>
                                    <parameterid>right</parameterid>
                                    <value>0</value>
                                    <valuemin>0</valuemin>
                                    <valuemax>100</valuemax>
                                </parameter>
                                <parameter>
                                    <name>top</name>
                                    <parameterid>top</parameterid>
                                    <value>0</value>
                                    <valuemin>0</valuemin>
                                    <valuemax>100</valuemax>
                                </parameter>
                                <parameter>
                                    <name>bottom</name>
                                    <parameterid>bottom</parameterid>
                                    <value>0</value>
                                    <valuemin>0</valuemin>
                                    <valuemax>100</valuemax>
                                </parameter>
                            </effect>
                        </filter>
                        <filter>
                            <enabled>TRUE</enabled>
                            <start>0</start>
                            <end>13380</end>
                            <effect>
                                <name>Opacity</name>
                                <effectid>opacity</effectid>
                                <effecttype>motion</effecttype>
                                <mediatype>video</mediatype>
                                <effectcategory>motion</effectcategory>
                                <parameter>
                                    <name>opacity</name>
                                    <parameterid>opacity</parameterid>
                                    <value>100</value>
                                    <valuemin>0</valuemin>
                                    <valuemax>100</valuemax>
                                </parameter>
                            </effect>
                        </filter>
                        <link>
                            <linkclipref>B080R010_240828QM.MXF 7</linkclipref>
                        </link>
                        <link>
                            <linkclipref>B080R010_240828QM.MXF 12</linkclipref>
                        </link>
                        <link>
                            <linkclipref>B080R010_240828QM.MXF 16</linkclipref>
                        </link>
                        <link>
                            <linkclipref>B080R010_240828QM.MXF 20</linkclipref>
                        </link>
                        <link>
                            <linkclipref>B080R010_240828QM.MXF 24</linkclipref>
                        </link>
                        <comments/>
                    </clipitem>
                    <enabled>TRUE</enabled>
                    <locked>FALSE</locked>
                </track>
                <track>
                    <enabled>TRUE</enabled>
                    <locked>FALSE</locked>
                </track>
                <track>
                    <enabled>TRUE</enabled>
                    <locked>FALSE</locked>
                </track>
                <track>
                    <enabled>TRUE</enabled>
                    <locked>FALSE</locked>
                </track>
                <track>
                    <enabled>TRUE</enabled>
                    <locked>FALSE</locked>
                </track>
                <track>
                    <enabled>TRUE</enabled>
                    <locked>FALSE</locked>
                </track>
                <format>
                    <samplecharacteristics>
                        <width>3840</width>
                        <height>2160</height>
                        <pixelaspectratio>square</pixelaspectratio>
                        <rate>
                            <timebase>24</timebase>
                            <ntsc>TRUE</ntsc>
                        </rate>
                        <codec>
                            <name>VLOG_14_-Egor Mira Fm Radio construction status -_V01 (Resolve)</name>
                            <appspecificdata>
                                <appname>Final Cut Pro</appname>
                                <appmanufacturer>Apple Inc.</appmanufacturer>
                                <data>
                                    <qtcodec/>
                                </data>
                            </appspecificdata>
                        </codec>
                    </samplecharacteristics>
                </format>
            </video>
            <audio>
                <track>
                    <clipitem id="B080R010_240828QM.MXF 9">
                        <name>B080R010_240828QM.MXF</name>
                        <duration>13380</duration>
                        <rate>
                            <timebase>24</timebase>
                            <ntsc>TRUE</ntsc>
                        </rate>
                        <start>0</start>
                        <end>564</end>
                        <enabled>TRUE</enabled>
                        <in>47</in>
                        <out>611</out>
                        <file id="B080R010_240828QM.MXF 2"/>
                        <sourcetrack>
                            <mediatype>audio</mediatype>
                            <trackindex>1</trackindex>
                        </sourcetrack>
                        <filter>
                            <enabled>TRUE</enabled>
                            <start>0</start>
                            <end>13380</end>
                            <effect>
                                <name>Audio Levels</name>
                                <effectid>audiolevels</effectid>
                                <effecttype>audiolevels</effecttype>
                                <mediatype>audio</mediatype>
                                <effectcategory>audiolevels</effectcategory>
                                <parameter>
                                    <name>Level</name>
                                    <parameterid>level</parameterid>
                                    <value>1</value>
                                    <valuemin>0</valuemin>
                                    <valuemax>3.98109</valuemax>
                                </parameter>
                            </effect>
                        </filter>
                        <filter>
                            <enabled>TRUE</enabled>
                            <start>0</start>
                            <end>13380</end>
                            <effect>
                                <name>Audio Pan</name>
                                <effectid>audiopan</effectid>
                                <effecttype>audiopan</effecttype>
                                <mediatype>audio</mediatype>
                                <effectcategory>audiopan</effectcategory>
                                <parameter>
                                    <name>Pan</name>
                                    <parameterid>pan</parameterid>
                                    <value>0</value>
                                    <valuemin>-1</valuemin>
                                    <valuemax>1</valuemax>
                                </parameter>
                            </effect>
                        </filter>
                        <link>
                            <linkclipref>B080R010_240828QM.MXF 0</linkclipref>
                            <mediatype>video</mediatype>
                        </link>
                        <link>
                            <linkclipref>B080R010_240828QM.MXF 9</linkclipref>
                        </link>
                        <link>
                            <linkclipref>B080R010_240828QM.MXF 13</linkclipref>
                        </link>
                        <link>
                            <linkclipref>B080R010_240828QM.MXF 17</linkclipref>
                        </link>
                        <link>
                            <linkclipref>B080R010_240828QM.MXF 21</linkclipref>
                        </link>
                        <comments/>
                    </clipitem>
                    <clipitem id="B080R010_240828QM.MXF 10">
                        <name>B080R010_240828QM.MXF</name>
                        <duration>13380</duration>
                        <rate>
                            <timebase>24</timebase>
                            <ntsc>TRUE</ntsc>
                        </rate>
                        <start>564</start>
                        <end>1060</end>
                        <enabled>TRUE</enabled>
                        <in>722</in>
                        <out>1218</out>
                        <file id="B080R010_240828QM.MXF 2"/>
                        <sourcetrack>
                            <mediatype>audio</mediatype>
                            <trackindex>1</trackindex>
                        </sourcetrack>
                        <filter>
                            <enabled>TRUE</enabled>
                            <start>0</start>
                            <end>13380</end>
                            <effect>
                                <name>Audio Levels</name>
                                <effectid>audiolevels</effectid>
                                <effecttype>audiolevels</effecttype>
                                <mediatype>audio</mediatype>
                                <effectcategory>audiolevels</effectcategory>
                                <parameter>
                                    <name>Level</name>
                                    <parameterid>level</parameterid>
                                    <value>1</value>
                                    <valuemin>0</valuemin>
                                    <valuemax>3.98109</valuemax>
                                </parameter>
                            </effect>
                        </filter>
                        <filter>
                            <enabled>TRUE</enabled>
                            <start>0</start>
                            <end>13380</end>
                            <effect>
                                <name>Audio Pan</name>
                                <effectid>audiopan</effectid>
                                <effecttype>audiopan</effecttype>
                                <mediatype>audio</mediatype>
                                <effectcategory>audiopan</effectcategory>
                                <parameter>
                                    <name>Pan</name>
                                    <parameterid>pan</parameterid>
                                    <value>0</value>
                                    <valuemin>-1</valuemin>
                                    <valuemax>1</valuemax>
                                </parameter>
                            </effect>
                        </filter>
                        <link>
                            <linkclipref>B080R010_240828QM.MXF 3</linkclipref>
                            <mediatype>video</mediatype>
                        </link>
                        <link>
                            <linkclipref>B080R010_240828QM.MXF 10</linkclipref>
                        </link>
                        <link>
                            <linkclipref>B080R010_240828QM.MXF 14</linkclipref>
                        </link>
                        <link>
                            <linkclipref>B080R010_240828QM.MXF 18</linkclipref>
                        </link>
                        <link>
                            <linkclipref>B080R010_240828QM.MXF 22</linkclipref>
                        </link>
                        <comments/>
                    </clipitem>
                    <clipitem id="B080R010_240828QM.MXF 11">
                        <name>B080R010_240828QM.MXF</name>
                        <duration>13380</duration>
                        <rate>
                            <timebase>24</timebase>
                            <ntsc>TRUE</ntsc>
                        </rate>
                        <start>1060</start>
                        <end>1528</end>
                        <enabled>TRUE</enabled>
                        <in>3991</in>
                        <out>4459</out>
                        <file id="B080R010_240828QM.MXF 2"/>
                        <sourcetrack>
                            <mediatype>audio</mediatype>
                            <trackindex>1</trackindex>
                        </sourcetrack>
                        <filter>
                            <enabled>TRUE</enabled>
                            <start>0</start>
                            <end>13380</end>
                            <effect>
                                <name>Audio Levels</name>
                                <effectid>audiolevels</effectid>
                                <effecttype>audiolevels</effecttype>
                                <mediatype>audio</mediatype>
                                <effectcategory>audiolevels</effectcategory>
                                <parameter>
                                    <name>Level</name>
                                    <parameterid>level</parameterid>
                                    <value>1</value>
                                    <valuemin>0</valuemin>
                                    <valuemax>3.98109</valuemax>
                                </parameter>
                            </effect>
                        </filter>
                        <filter>
                            <enabled>TRUE</enabled>
                            <start>0</start>
                            <end>13380</end>
                            <effect>
                                <name>Audio Pan</name>
                                <effectid>audiopan</effectid>
                                <effecttype>audiopan</effecttype>
                                <mediatype>audio</mediatype>
                                <effectcategory>audiopan</effectcategory>
                                <parameter>
                                    <name>Pan</name>
                                    <parameterid>pan</parameterid>
                                    <value>0</value>
                                    <valuemin>-1</valuemin>
                                    <valuemax>1</valuemax>
                                </parameter>
                            </effect>
                        </filter>
                        <link>
                            <linkclipref>B080R010_240828QM.MXF 5</linkclipref>
                            <mediatype>video</mediatype>
                        </link>
                        <link>
                            <linkclipref>B080R010_240828QM.MXF 11</linkclipref>
                        </link>
                        <link>
                            <linkclipref>B080R010_240828QM.MXF 15</linkclipref>
                        </link>
                        <link>
                            <linkclipref>B080R010_240828QM.MXF 19</linkclipref>
                        </link>
                        <link>
                            <linkclipref>B080R010_240828QM.MXF 23</linkclipref>
                        </link>
                        <comments/>
                    </clipitem>
                    <clipitem id="B080R010_240828QM.MXF 12">
                        <name>B080R010_240828QM.MXF</name>
                        <duration>13380</duration>
                        <rate>
                            <timebase>24</timebase>
                            <ntsc>TRUE</ntsc>
                        </rate>
                        <start>1528</start>
                        <end>9073</end>
                        <enabled>TRUE</enabled>
                        <in>5835</in>
                        <out>13380</out>
                        <file id="B080R010_240828QM.MXF 2"/>
                        <sourcetrack>
                            <mediatype>audio</mediatype>
                            <trackindex>1</trackindex>
                        </sourcetrack>
                        <filter>
                            <enabled>TRUE</enabled>
                            <start>0</start>
                            <end>13380</end>
                            <effect>
                                <name>Audio Levels</name>
                                <effectid>audiolevels</effectid>
                                <effecttype>audiolevels</effecttype>
                                <mediatype>audio</mediatype>
                                <effectcategory>audiolevels</effectcategory>
                                <parameter>
                                    <name>Level</name>
                                    <parameterid>level</parameterid>
                                    <value>1</value>
                                    <valuemin>0</valuemin>
                                    <valuemax>3.98109</valuemax>
                                </parameter>
                            </effect>
                        </filter>
                        <filter>
                            <enabled>TRUE</enabled>
                            <start>0</start>
                            <end>13380</end>
                            <effect>
                                <name>Audio Pan</name>
                                <effectid>audiopan</effectid>
                                <effecttype>audiopan</effecttype>
                                <mediatype>audio</mediatype>
                                <effectcategory>audiopan</effectcategory>
                                <parameter>
                                    <name>Pan</name>
                                    <parameterid>pan</parameterid>
                                    <value>0</value>
                                    <valuemin>-1</valuemin>
                                    <valuemax>1</valuemax>
                                </parameter>
                            </effect>
                        </filter>
                        <link>
                            <linkclipref>B080R010_240828QM.MXF 7</linkclipref>
                            <mediatype>video</mediatype>
                        </link>
                        <link>
                            <linkclipref>B080R010_240828QM.MXF 12</linkclipref>
                        </link>
                        <link>
                            <linkclipref>B080R010_240828QM.MXF 16</linkclipref>
                        </link>
                        <link>
                            <linkclipref>B080R010_240828QM.MXF 20</linkclipref>
                        </link>
                        <link>
                            <linkclipref>B080R010_240828QM.MXF 24</linkclipref>
                        </link>
                        <comments/>
                    </clipitem>
                    <enabled>TRUE</enabled>
                    <locked>FALSE</locked>
                </track>
                <track>
                    <clipitem id="B080R010_240828QM.MXF 13">
                        <name>B080R010_240828QM.MXF</name>
                        <duration>13380</duration>
                        <rate>
                            <timebase>24</timebase>
                            <ntsc>TRUE</ntsc>
                        </rate>
                        <start>0</start>
                        <end>564</end>
                        <enabled>TRUE</enabled>
                        <in>47</in>
                        <out>611</out>
                        <file id="B080R010_240828QM.MXF 2"/>
                        <sourcetrack>
                            <mediatype>audio</mediatype>
                            <trackindex>2</trackindex>
                        </sourcetrack>
                        <filter>
                            <enabled>TRUE</enabled>
                            <start>0</start>
                            <end>13380</end>
                            <effect>
                                <name>Audio Levels</name>
                                <effectid>audiolevels</effectid>
                                <effecttype>audiolevels</effecttype>
                                <mediatype>audio</mediatype>
                                <effectcategory>audiolevels</effectcategory>
                                <parameter>
                                    <name>Level</name>
                                    <parameterid>level</parameterid>
                                    <value>1</value>
                                    <valuemin>0</valuemin>
                                    <valuemax>3.98109</valuemax>
                                </parameter>
                            </effect>
                        </filter>
                        <filter>
                            <enabled>TRUE</enabled>
                            <start>0</start>
                            <end>13380</end>
                            <effect>
                                <name>Audio Pan</name>
                                <effectid>audiopan</effectid>
                                <effecttype>audiopan</effecttype>
                                <mediatype>audio</mediatype>
                                <effectcategory>audiopan</effectcategory>
                                <parameter>
                                    <name>Pan</name>
                                    <parameterid>pan</parameterid>
                                    <value>0</value>
                                    <valuemin>-1</valuemin>
                                    <valuemax>1</valuemax>
                                </parameter>
                            </effect>
                        </filter>
                        <link>
                            <linkclipref>B080R010_240828QM.MXF 0</linkclipref>
                            <mediatype>video</mediatype>
                        </link>
                        <link>
                            <linkclipref>B080R010_240828QM.MXF 9</linkclipref>
                            <mediatype>audio</mediatype>
                        </link>
                        <link>
                            <linkclipref>B080R010_240828QM.MXF 13</linkclipref>
                        </link>
                        <link>
                            <linkclipref>B080R010_240828QM.MXF 17</linkclipref>
                        </link>
                        <link>
                            <linkclipref>B080R010_240828QM.MXF 21</linkclipref>
                        </link>
                        <comments/>
                    </clipitem>
                    <clipitem id="B080R010_240828QM.MXF 14">
                        <name>B080R010_240828QM.MXF</name>
                        <duration>13380</duration>
                        <rate>
                            <timebase>24</timebase>
                            <ntsc>TRUE</ntsc>
                        </rate>
                        <start>564</start>
                        <end>1060</end>
                        <enabled>TRUE</enabled>
                        <in>722</in>
                        <out>1218</out>
                        <file id="B080R010_240828QM.MXF 2"/>
                        <sourcetrack>
                            <mediatype>audio</mediatype>
                            <trackindex>2</trackindex>
                        </sourcetrack>
                        <filter>
                            <enabled>TRUE</enabled>
                            <start>0</start>
                            <end>13380</end>
                            <effect>
                                <name>Audio Levels</name>
                                <effectid>audiolevels</effectid>
                                <effecttype>audiolevels</effecttype>
                                <mediatype>audio</mediatype>
                                <effectcategory>audiolevels</effectcategory>
                                <parameter>
                                    <name>Level</name>
                                    <parameterid>level</parameterid>
                                    <value>1</value>
                                    <valuemin>0</valuemin>
                                    <valuemax>3.98109</valuemax>
                                </parameter>
                            </effect>
                        </filter>
                        <filter>
                            <enabled>TRUE</enabled>
                            <start>0</start>
                            <end>13380</end>
                            <effect>
                                <name>Audio Pan</name>
                                <effectid>audiopan</effectid>
                                <effecttype>audiopan</effecttype>
                                <mediatype>audio</mediatype>
                                <effectcategory>audiopan</effectcategory>
                                <parameter>
                                    <name>Pan</name>
                                    <parameterid>pan</parameterid>
                                    <value>0</value>
                                    <valuemin>-1</valuemin>
                                    <valuemax>1</valuemax>
                                </parameter>
                            </effect>
                        </filter>
                        <link>
                            <linkclipref>B080R010_240828QM.MXF 3</linkclipref>
                            <mediatype>video</mediatype>
                        </link>
                        <link>
                            <linkclipref>B080R010_240828QM.MXF 10</linkclipref>
                            <mediatype>audio</mediatype>
                        </link>
                        <link>
                            <linkclipref>B080R010_240828QM.MXF 14</linkclipref>
                        </link>
                        <link>
                            <linkclipref>B080R010_240828QM.MXF 18</linkclipref>
                        </link>
                        <link>
                            <linkclipref>B080R010_240828QM.MXF 22</linkclipref>
                        </link>
                        <comments/>
                    </clipitem>
                    <clipitem id="B080R010_240828QM.MXF 15">
                        <name>B080R010_240828QM.MXF</name>
                        <duration>13380</duration>
                        <rate>
                            <timebase>24</timebase>
                            <ntsc>TRUE</ntsc>
                        </rate>
                        <start>1060</start>
                        <end>1528</end>
                        <enabled>TRUE</enabled>
                        <in>3991</in>
                        <out>4459</out>
                        <file id="B080R010_240828QM.MXF 2"/>
                        <sourcetrack>
                            <mediatype>audio</mediatype>
                            <trackindex>2</trackindex>
                        </sourcetrack>
                        <filter>
                            <enabled>TRUE</enabled>
                            <start>0</start>
                            <end>13380</end>
                            <effect>
                                <name>Audio Levels</name>
                                <effectid>audiolevels</effectid>
                                <effecttype>audiolevels</effecttype>
                                <mediatype>audio</mediatype>
                                <effectcategory>audiolevels</effectcategory>
                                <parameter>
                                    <name>Level</name>
                                    <parameterid>level</parameterid>
                                    <value>1</value>
                                    <valuemin>0</valuemin>
                                    <valuemax>3.98109</valuemax>
                                </parameter>
                            </effect>
                        </filter>
                        <filter>
                            <enabled>TRUE</enabled>
                            <start>0</start>
                            <end>13380</end>
                            <effect>
                                <name>Audio Pan</name>
                                <effectid>audiopan</effectid>
                                <effecttype>audiopan</effecttype>
                                <mediatype>audio</mediatype>
                                <effectcategory>audiopan</effectcategory>
                                <parameter>
                                    <name>Pan</name>
                                    <parameterid>pan</parameterid>
                                    <value>0</value>
                                    <valuemin>-1</valuemin>
                                    <valuemax>1</valuemax>
                                </parameter>
                            </effect>
                        </filter>
                        <link>
                            <linkclipref>B080R010_240828QM.MXF 5</linkclipref>
                            <mediatype>video</mediatype>
                        </link>
                        <link>
                            <linkclipref>B080R010_240828QM.MXF 11</linkclipref>
                            <mediatype>audio</mediatype>
                        </link>
                        <link>
                            <linkclipref>B080R010_240828QM.MXF 15</linkclipref>
                        </link>
                        <link>
                            <linkclipref>B080R010_240828QM.MXF 19</linkclipref>
                        </link>
                        <link>
                            <linkclipref>B080R010_240828QM.MXF 23</linkclipref>
                        </link>
                        <comments/>
                    </clipitem>
                    <clipitem id="B080R010_240828QM.MXF 16">
                        <name>B080R010_240828QM.MXF</name>
                        <duration>13380</duration>
                        <rate>
                            <timebase>24</timebase>
                            <ntsc>TRUE</ntsc>
                        </rate>
                        <start>1528</start>
                        <end>9073</end>
                        <enabled>TRUE</enabled>
                        <in>5835</in>
                        <out>13380</out>
                        <file id="B080R010_240828QM.MXF 2"/>
                        <sourcetrack>
                            <mediatype>audio</mediatype>
                            <trackindex>2</trackindex>
                        </sourcetrack>
                        <filter>
                            <enabled>TRUE</enabled>
                            <start>0</start>
                            <end>13380</end>
                            <effect>
                                <name>Audio Levels</name>
                                <effectid>audiolevels</effectid>
                                <effecttype>audiolevels</effecttype>
                                <mediatype>audio</mediatype>
                                <effectcategory>audiolevels</effectcategory>
                                <parameter>
                                    <name>Level</name>
                                    <parameterid>level</parameterid>
                                    <value>1</value>
                                    <valuemin>0</valuemin>
                                    <valuemax>3.98109</valuemax>
                                </parameter>
                            </effect>
                        </filter>
                        <filter>
                            <enabled>TRUE</enabled>
                            <start>0</start>
                            <end>13380</end>
                            <effect>
                                <name>Audio Pan</name>
                                <effectid>audiopan</effectid>
                                <effecttype>audiopan</effecttype>
                                <mediatype>audio</mediatype>
                                <effectcategory>audiopan</effectcategory>
                                <parameter>
                                    <name>Pan</name>
                                    <parameterid>pan</parameterid>
                                    <value>0</value>
                                    <valuemin>-1</valuemin>
                                    <valuemax>1</valuemax>
                                </parameter>
                            </effect>
                        </filter>
                        <link>
                            <linkclipref>B080R010_240828QM.MXF 7</linkclipref>
                            <mediatype>video</mediatype>
                        </link>
                        <link>
                            <linkclipref>B080R010_240828QM.MXF 12</linkclipref>
                            <mediatype>audio</mediatype>
                        </link>
                        <link>
                            <linkclipref>B080R010_240828QM.MXF 16</linkclipref>
                        </link>
                        <link>
                            <linkclipref>B080R010_240828QM.MXF 20</linkclipref>
                        </link>
                        <link>
                            <linkclipref>B080R010_240828QM.MXF 24</linkclipref>
                        </link>
                        <comments/>
                    </clipitem>
                    <enabled>TRUE</enabled>
                    <locked>FALSE</locked>
                </track>
                <track>
                    <clipitem id="B080R010_240828QM.MXF 17">
                        <name>B080R010_240828QM.MXF</name>
                        <duration>13380</duration>
                        <rate>
                            <timebase>24</timebase>
                            <ntsc>TRUE</ntsc>
                        </rate>
                        <start>0</start>
                        <end>564</end>
                        <enabled>TRUE</enabled>
                        <in>47</in>
                        <out>611</out>
                        <file id="B080R010_240828QM.MXF 2"/>
                        <sourcetrack>
                            <mediatype>audio</mediatype>
                            <trackindex>3</trackindex>
                        </sourcetrack>
                        <filter>
                            <enabled>TRUE</enabled>
                            <start>0</start>
                            <end>13380</end>
                            <effect>
                                <name>Audio Levels</name>
                                <effectid>audiolevels</effectid>
                                <effecttype>audiolevels</effecttype>
                                <mediatype>audio</mediatype>
                                <effectcategory>audiolevels</effectcategory>
                                <parameter>
                                    <name>Level</name>
                                    <parameterid>level</parameterid>
                                    <value>1</value>
                                    <valuemin>0</valuemin>
                                    <valuemax>3.98109</valuemax>
                                </parameter>
                            </effect>
                        </filter>
                        <filter>
                            <enabled>TRUE</enabled>
                            <start>0</start>
                            <end>13380</end>
                            <effect>
                                <name>Audio Pan</name>
                                <effectid>audiopan</effectid>
                                <effecttype>audiopan</effecttype>
                                <mediatype>audio</mediatype>
                                <effectcategory>audiopan</effectcategory>
                                <parameter>
                                    <name>Pan</name>
                                    <parameterid>pan</parameterid>
                                    <value>0</value>
                                    <valuemin>-1</valuemin>
                                    <valuemax>1</valuemax>
                                </parameter>
                            </effect>
                        </filter>
                        <link>
                            <linkclipref>B080R010_240828QM.MXF 13</linkclipref>
                            <mediatype>audio</mediatype>
                        </link>
                        <link>
                            <linkclipref>B080R010_240828QM.MXF 0</linkclipref>
                            <mediatype>video</mediatype>
                        </link>
                        <link>
                            <linkclipref>B080R010_240828QM.MXF 9</linkclipref>
                            <mediatype>audio</mediatype>
                        </link>
                        <link>
                            <linkclipref>B080R010_240828QM.MXF 17</linkclipref>
                        </link>
                        <link>
                            <linkclipref>B080R010_240828QM.MXF 21</linkclipref>
                        </link>
                        <comments/>
                    </clipitem>
                    <clipitem id="B080R010_240828QM.MXF 18">
                        <name>B080R010_240828QM.MXF</name>
                        <duration>13380</duration>
                        <rate>
                            <timebase>24</timebase>
                            <ntsc>TRUE</ntsc>
                        </rate>
                        <start>564</start>
                        <end>1060</end>
                        <enabled>TRUE</enabled>
                        <in>722</in>
                        <out>1218</out>
                        <file id="B080R010_240828QM.MXF 2"/>
                        <sourcetrack>
                            <mediatype>audio</mediatype>
                            <trackindex>3</trackindex>
                        </sourcetrack>
                        <filter>
                            <enabled>TRUE</enabled>
                            <start>0</start>
                            <end>13380</end>
                            <effect>
                                <name>Audio Levels</name>
                                <effectid>audiolevels</effectid>
                                <effecttype>audiolevels</effecttype>
                                <mediatype>audio</mediatype>
                                <effectcategory>audiolevels</effectcategory>
                                <parameter>
                                    <name>Level</name>
                                    <parameterid>level</parameterid>
                                    <value>1</value>
                                    <valuemin>0</valuemin>
                                    <valuemax>3.98109</valuemax>
                                </parameter>
                            </effect>
                        </filter>
                        <filter>
                            <enabled>TRUE</enabled>
                            <start>0</start>
                            <end>13380</end>
                            <effect>
                                <name>Audio Pan</name>
                                <effectid>audiopan</effectid>
                                <effecttype>audiopan</effecttype>
                                <mediatype>audio</mediatype>
                                <effectcategory>audiopan</effectcategory>
                                <parameter>
                                    <name>Pan</name>
                                    <parameterid>pan</parameterid>
                                    <value>0</value>
                                    <valuemin>-1</valuemin>
                                    <valuemax>1</valuemax>
                                </parameter>
                            </effect>
                        </filter>
                        <link>
                            <linkclipref>B080R010_240828QM.MXF 3</linkclipref>
                            <mediatype>video</mediatype>
                        </link>
                        <link>
                            <linkclipref>B080R010_240828QM.MXF 14</linkclipref>
                            <mediatype>audio</mediatype>
                        </link>
                        <link>
                            <linkclipref>B080R010_240828QM.MXF 10</linkclipref>
                            <mediatype>audio</mediatype>
                        </link>
                        <link>
                            <linkclipref>B080R010_240828QM.MXF 18</linkclipref>
                        </link>
                        <link>
                            <linkclipref>B080R010_240828QM.MXF 22</linkclipref>
                        </link>
                        <comments/>
                    </clipitem>
                    <clipitem id="B080R010_240828QM.MXF 19">
                        <name>B080R010_240828QM.MXF</name>
                        <duration>13380</duration>
                        <rate>
                            <timebase>24</timebase>
                            <ntsc>TRUE</ntsc>
                        </rate>
                        <start>1060</start>
                        <end>1528</end>
                        <enabled>TRUE</enabled>
                        <in>3991</in>
                        <out>4459</out>
                        <file id="B080R010_240828QM.MXF 2"/>
                        <sourcetrack>
                            <mediatype>audio</mediatype>
                            <trackindex>3</trackindex>
                        </sourcetrack>
                        <filter>
                            <enabled>TRUE</enabled>
                            <start>0</start>
                            <end>13380</end>
                            <effect>
                                <name>Audio Levels</name>
                                <effectid>audiolevels</effectid>
                                <effecttype>audiolevels</effecttype>
                                <mediatype>audio</mediatype>
                                <effectcategory>audiolevels</effectcategory>
                                <parameter>
                                    <name>Level</name>
                                    <parameterid>level</parameterid>
                                    <value>1</value>
                                    <valuemin>0</valuemin>
                                    <valuemax>3.98109</valuemax>
                                </parameter>
                            </effect>
                        </filter>
                        <filter>
                            <enabled>TRUE</enabled>
                            <start>0</start>
                            <end>13380</end>
                            <effect>
                                <name>Audio Pan</name>
                                <effectid>audiopan</effectid>
                                <effecttype>audiopan</effecttype>
                                <mediatype>audio</mediatype>
                                <effectcategory>audiopan</effectcategory>
                                <parameter>
                                    <name>Pan</name>
                                    <parameterid>pan</parameterid>
                                    <value>0</value>
                                    <valuemin>-1</valuemin>
                                    <valuemax>1</valuemax>
                                </parameter>
                            </effect>
                        </filter>
                        <link>
                            <linkclipref>B080R010_240828QM.MXF 5</linkclipref>
                            <mediatype>video</mediatype>
                        </link>
                        <link>
                            <linkclipref>B080R010_240828QM.MXF 11</linkclipref>
                            <mediatype>audio</mediatype>
                        </link>
                        <link>
                            <linkclipref>B080R010_240828QM.MXF 15</linkclipref>
                            <mediatype>audio</mediatype>
                        </link>
                        <link>
                            <linkclipref>B080R010_240828QM.MXF 19</linkclipref>
                        </link>
                        <link>
                            <linkclipref>B080R010_240828QM.MXF 23</linkclipref>
                        </link>
                        <comments/>
                    </clipitem>
                    <clipitem id="B080R010_240828QM.MXF 20">
                        <name>B080R010_240828QM.MXF</name>
                        <duration>13380</duration>
                        <rate>
                            <timebase>24</timebase>
                            <ntsc>TRUE</ntsc>
                        </rate>
                        <start>1528</start>
                        <end>9073</end>
                        <enabled>TRUE</enabled>
                        <in>5835</in>
                        <out>13380</out>
                        <file id="B080R010_240828QM.MXF 2"/>
                        <sourcetrack>
                            <mediatype>audio</mediatype>
                            <trackindex>3</trackindex>
                        </sourcetrack>
                        <filter>
                            <enabled>TRUE</enabled>
                            <start>0</start>
                            <end>13380</end>
                            <effect>
                                <name>Audio Levels</name>
                                <effectid>audiolevels</effectid>
                                <effecttype>audiolevels</effecttype>
                                <mediatype>audio</mediatype>
                                <effectcategory>audiolevels</effectcategory>
                                <parameter>
                                    <name>Level</name>
                                    <parameterid>level</parameterid>
                                    <value>1</value>
                                    <valuemin>0</valuemin>
                                    <valuemax>3.98109</valuemax>
                                </parameter>
                            </effect>
                        </filter>
                        <filter>
                            <enabled>TRUE</enabled>
                            <start>0</start>
                            <end>13380</end>
                            <effect>
                                <name>Audio Pan</name>
                                <effectid>audiopan</effectid>
                                <effecttype>audiopan</effecttype>
                                <mediatype>audio</mediatype>
                                <effectcategory>audiopan</effectcategory>
                                <parameter>
                                    <name>Pan</name>
                                    <parameterid>pan</parameterid>
                                    <value>0</value>
                                    <valuemin>-1</valuemin>
                                    <valuemax>1</valuemax>
                                </parameter>
                            </effect>
                        </filter>
                        <link>
                            <linkclipref>B080R010_240828QM.MXF 16</linkclipref>
                            <mediatype>audio</mediatype>
                        </link>
                        <link>
                            <linkclipref>B080R010_240828QM.MXF 7</linkclipref>
                            <mediatype>video</mediatype>
                        </link>
                        <link>
                            <linkclipref>B080R010_240828QM.MXF 12</linkclipref>
                            <mediatype>audio</mediatype>
                        </link>
                        <link>
                            <linkclipref>B080R010_240828QM.MXF 20</linkclipref>
                        </link>
                        <link>
                            <linkclipref>B080R010_240828QM.MXF 24</linkclipref>
                        </link>
                        <comments/>
                    </clipitem>
                    <enabled>TRUE</enabled>
                    <locked>FALSE</locked>
                </track>
                <track>
                    <clipitem id="B080R010_240828QM.MXF 21">
                        <name>B080R010_240828QM.MXF</name>
                        <duration>13380</duration>
                        <rate>
                            <timebase>24</timebase>
                            <ntsc>TRUE</ntsc>
                        </rate>
                        <start>0</start>
                        <end>564</end>
                        <enabled>TRUE</enabled>
                        <in>47</in>
                        <out>611</out>
                        <file id="B080R010_240828QM.MXF 2"/>
                        <sourcetrack>
                            <mediatype>audio</mediatype>
                            <trackindex>4</trackindex>
                        </sourcetrack>
                        <filter>
                            <enabled>TRUE</enabled>
                            <start>0</start>
                            <end>13380</end>
                            <effect>
                                <name>Audio Levels</name>
                                <effectid>audiolevels</effectid>
                                <effecttype>audiolevels</effecttype>
                                <mediatype>audio</mediatype>
                                <effectcategory>audiolevels</effectcategory>
                                <parameter>
                                    <name>Level</name>
                                    <parameterid>level</parameterid>
                                    <value>1</value>
                                    <valuemin>0</valuemin>
                                    <valuemax>3.98109</valuemax>
                                </parameter>
                            </effect>
                        </filter>
                        <filter>
                            <enabled>TRUE</enabled>
                            <start>0</start>
                            <end>13380</end>
                            <effect>
                                <name>Audio Pan</name>
                                <effectid>audiopan</effectid>
                                <effecttype>audiopan</effecttype>
                                <mediatype>audio</mediatype>
                                <effectcategory>audiopan</effectcategory>
                                <parameter>
                                    <name>Pan</name>
                                    <parameterid>pan</parameterid>
                                    <value>0</value>
                                    <valuemin>-1</valuemin>
                                    <valuemax>1</valuemax>
                                </parameter>
                            </effect>
                        </filter>
                        <link>
                            <linkclipref>B080R010_240828QM.MXF 13</linkclipref>
                            <mediatype>audio</mediatype>
                        </link>
                        <link>
                            <linkclipref>B080R010_240828QM.MXF 17</linkclipref>
                            <mediatype>audio</mediatype>
                        </link>
                        <link>
                            <linkclipref>B080R010_240828QM.MXF 0</linkclipref>
                            <mediatype>video</mediatype>
                        </link>
                        <link>
                            <linkclipref>B080R010_240828QM.MXF 9</linkclipref>
                            <mediatype>audio</mediatype>
                        </link>
                        <link>
                            <linkclipref>B080R010_240828QM.MXF 21</linkclipref>
                        </link>
                        <comments/>
                    </clipitem>
                    <clipitem id="B080R010_240828QM.MXF 22">
                        <name>B080R010_240828QM.MXF</name>
                        <duration>13380</duration>
                        <rate>
                            <timebase>24</timebase>
                            <ntsc>TRUE</ntsc>
                        </rate>
                        <start>564</start>
                        <end>1060</end>
                        <enabled>TRUE</enabled>
                        <in>722</in>
                        <out>1218</out>
                        <file id="B080R010_240828QM.MXF 2"/>
                        <sourcetrack>
                            <mediatype>audio</mediatype>
                            <trackindex>4</trackindex>
                        </sourcetrack>
                        <filter>
                            <enabled>TRUE</enabled>
                            <start>0</start>
                            <end>13380</end>
                            <effect>
                                <name>Audio Levels</name>
                                <effectid>audiolevels</effectid>
                                <effecttype>audiolevels</effecttype>
                                <mediatype>audio</mediatype>
                                <effectcategory>audiolevels</effectcategory>
                                <parameter>
                                    <name>Level</name>
                                    <parameterid>level</parameterid>
                                    <value>1</value>
                                    <valuemin>0</valuemin>
                                    <valuemax>3.98109</valuemax>
                                </parameter>
                            </effect>
                        </filter>
                        <filter>
                            <enabled>TRUE</enabled>
                            <start>0</start>
                            <end>13380</end>
                            <effect>
                                <name>Audio Pan</name>
                                <effectid>audiopan</effectid>
                                <effecttype>audiopan</effecttype>
                                <mediatype>audio</mediatype>
                                <effectcategory>audiopan</effectcategory>
                                <parameter>
                                    <name>Pan</name>
                                    <parameterid>pan</parameterid>
                                    <value>0</value>
                                    <valuemin>-1</valuemin>
                                    <valuemax>1</valuemax>
                                </parameter>
                            </effect>
                        </filter>
                        <link>
                            <linkclipref>B080R010_240828QM.MXF 18</linkclipref>
                            <mediatype>audio</mediatype>
                        </link>
                        <link>
                            <linkclipref>B080R010_240828QM.MXF 3</linkclipref>
                            <mediatype>video</mediatype>
                        </link>
                        <link>
                            <linkclipref>B080R010_240828QM.MXF 14</linkclipref>
                            <mediatype>audio</mediatype>
                        </link>
                        <link>
                            <linkclipref>B080R010_240828QM.MXF 10</linkclipref>
                            <mediatype>audio</mediatype>
                        </link>
                        <link>
                            <linkclipref>B080R010_240828QM.MXF 22</linkclipref>
                        </link>
                        <comments/>
                    </clipitem>
                    <clipitem id="B080R010_240828QM.MXF 23">
                        <name>B080R010_240828QM.MXF</name>
                        <duration>13380</duration>
                        <rate>
                            <timebase>24</timebase>
                            <ntsc>TRUE</ntsc>
                        </rate>
                        <start>1060</start>
                        <end>1528</end>
                        <enabled>TRUE</enabled>
                        <in>3991</in>
                        <out>4459</out>
                        <file id="B080R010_240828QM.MXF 2"/>
                        <sourcetrack>
                            <mediatype>audio</mediatype>
                            <trackindex>4</trackindex>
                        </sourcetrack>
                        <filter>
                            <enabled>TRUE</enabled>
                            <start>0</start>
                            <end>13380</end>
                            <effect>
                                <name>Audio Levels</name>
                                <effectid>audiolevels</effectid>
                                <effecttype>audiolevels</effecttype>
                                <mediatype>audio</mediatype>
                                <effectcategory>audiolevels</effectcategory>
                                <parameter>
                                    <name>Level</name>
                                    <parameterid>level</parameterid>
                                    <value>1</value>
                                    <valuemin>0</valuemin>
                                    <valuemax>3.98109</valuemax>
                                </parameter>
                            </effect>
                        </filter>
                        <filter>
                            <enabled>TRUE</enabled>
                            <start>0</start>
                            <end>13380</end>
                            <effect>
                                <name>Audio Pan</name>
                                <effectid>audiopan</effectid>
                                <effecttype>audiopan</effecttype>
                                <mediatype>audio</mediatype>
                                <effectcategory>audiopan</effectcategory>
                                <parameter>
                                    <name>Pan</name>
                                    <parameterid>pan</parameterid>
                                    <value>0</value>
                                    <valuemin>-1</valuemin>
                                    <valuemax>1</valuemax>
                                </parameter>
                            </effect>
                        </filter>
                        <link>
                            <linkclipref>B080R010_240828QM.MXF 19</linkclipref>
                            <mediatype>audio</mediatype>
                        </link>
                        <link>
                            <linkclipref>B080R010_240828QM.MXF 5</linkclipref>
                            <mediatype>video</mediatype>
                        </link>
                        <link>
                            <linkclipref>B080R010_240828QM.MXF 11</linkclipref>
                            <mediatype>audio</mediatype>
                        </link>
                        <link>
                            <linkclipref>B080R010_240828QM.MXF 15</linkclipref>
                            <mediatype>audio</mediatype>
                        </link>
                        <link>
                            <linkclipref>B080R010_240828QM.MXF 23</linkclipref>
                        </link>
                        <comments/>
                    </clipitem>
                    <clipitem id="B080R010_240828QM.MXF 24">
                        <name>B080R010_240828QM.MXF</name>
                        <duration>13380</duration>
                        <rate>
                            <timebase>24</timebase>
                            <ntsc>TRUE</ntsc>
                        </rate>
                        <start>1528</start>
                        <end>9073</end>
                        <enabled>TRUE</enabled>
                        <in>5835</in>
                        <out>13380</out>
                        <file id="B080R010_240828QM.MXF 2"/>
                        <sourcetrack>
                            <mediatype>audio</mediatype>
                            <trackindex>4</trackindex>
                        </sourcetrack>
                        <filter>
                            <enabled>TRUE</enabled>
                            <start>0</start>
                            <end>13380</end>
                            <effect>
                                <name>Audio Levels</name>
                                <effectid>audiolevels</effectid>
                                <effecttype>audiolevels</effecttype>
                                <mediatype>audio</mediatype>
                                <effectcategory>audiolevels</effectcategory>
                                <parameter>
                                    <name>Level</name>
                                    <parameterid>level</parameterid>
                                    <value>1</value>
                                    <valuemin>0</valuemin>
                                    <valuemax>3.98109</valuemax>
                                </parameter>
                            </effect>
                        </filter>
                        <filter>
                            <enabled>TRUE</enabled>
                            <start>0</start>
                            <end>13380</end>
                            <effect>
                                <name>Audio Pan</name>
                                <effectid>audiopan</effectid>
                                <effecttype>audiopan</effecttype>
                                <mediatype>audio</mediatype>
                                <effectcategory>audiopan</effectcategory>
                                <parameter>
                                    <name>Pan</name>
                                    <parameterid>pan</parameterid>
                                    <value>0</value>
                                    <valuemin>-1</valuemin>
                                    <valuemax>1</valuemax>
                                </parameter>
                            </effect>
                        </filter>
                        <link>
                            <linkclipref>B080R010_240828QM.MXF 16</linkclipref>
                            <mediatype>audio</mediatype>
                        </link>
                        <link>
                            <linkclipref>B080R010_240828QM.MXF 7</linkclipref>
                            <mediatype>video</mediatype>
                        </link>
                        <link>
                            <linkclipref>B080R010_240828QM.MXF 20</linkclipref>
                            <mediatype>audio</mediatype>
                        </link>
                        <link>
                            <linkclipref>B080R010_240828QM.MXF 12</linkclipref>
                            <mediatype>audio</mediatype>
                        </link>
                        <link>
                            <linkclipref>B080R010_240828QM.MXF 24</linkclipref>
                        </link>
                        <comments/>
                    </clipitem>
                    <enabled>TRUE</enabled>
                    <locked>FALSE</locked>
                </track>
                <track>
                    <enabled>TRUE</enabled>
                    <locked>FALSE</locked>
                </track>
                <track>
                    <enabled>TRUE</enabled>
                    <locked>FALSE</locked>
                </track>
                <track>
                    <enabled>TRUE</enabled>
                    <locked>FALSE</locked>
                </track>
                <track>
                    <enabled>TRUE</enabled>
                    <locked>FALSE</locked>
                </track>
                <track>
                    <enabled>TRUE</enabled>
                    <locked>FALSE</locked>
                </track>
                <track>
                    <enabled>TRUE</enabled>
                    <locked>FALSE</locked>
                </track>
                <track>
                    <enabled>TRUE</enabled>
                    <locked>FALSE</locked>
                </track>
                <track>
                    <enabled>TRUE</enabled>
                    <locked>FALSE</locked>
                </track>
                <track>
                    <enabled>TRUE</enabled>
                    <locked>FALSE</locked>
                </track>
                <track>
                    <enabled>TRUE</enabled>
                    <locked>FALSE</locked>
                </track>
            </audio>
        </media>
    </sequence>
</xmeml>
